# xmcd
#
# Track frame offsets: 
#        150
#        17222
#        36822
#
# Disc length: 724 seconds
#
# Revision: 0
# Processed by: cddbd v1.4PL0 Copyright (c) Steve Scherf et al.
# Submitted via: ExactAudioCopy v0.95a1
#
DISCID=1c02d203
DTITLE=Wynonna - Tell Me Why
DYEAR=1996
DGENRE=Country
TTITLE0=Tell Me Why
TTITLE1=Father Sun
TTITLE2=I Saw The Light
EXTD=
EXTT0=
EXTT1=
EXTT2=
PLAYORDER=
